<?xml version="1.0" encoding="utf-8"?>
<svg version="1.1" xmlns:xlink="http://www.w3.org/1999/xlink" width="26px" height="32px" xmlns="http://www.w3.org/2000/svg">
  <g transform="matrix(1 0 0 1 -593 -275 )">
    <path d="M 15.8354430379747 31.7840909090909  C 15.6751054852321 31.9280303030303  15.4852320675105 32  15.2658227848101 32  L 10.9113924050633 32  C 10.6919831223629 32  10.5021097046414 31.9318181818182  10.3417721518987 31.7954545454545  C 10.1814345991561 31.6590909090909  10.1012658227848 31.4848484848485  10.1012658227848 31.2727272727273  L 10.1012658227848 23.7727272727273  L 2.81012658227848 23.7727272727273  C 2.59071729957806 23.7727272727273  2.40084388185654 23.7045454545455  2.24050632911392 23.5681818181818  C 2.08016877637131 23.4318181818182  2 23.2575757575758  2 23.0454545454545  L 2 20.7045454545455  C 2 20.5075757575758  2.08016877637131 20.3371212121212  2.24050632911392 20.1931818181818  C 2.40084388185654 20.0492424242424  2.59071729957806 19.9772727272727  2.81012658227848 19.9772727272727  L 10.1012658227848 19.9772727272727  L 10.1012658227848 18.0454545454545  L 2.81012658227848 18.0454545454545  C 2.59071729957806 18.0454545454545  2.40084388185654 17.9772727272727  2.24050632911392 17.8409090909091  C 2.08016877637131 17.7045454545455  2 17.530303030303  2 17.3181818181818  L 2 14.9545454545455  C 2 14.7575757575758  2.08016877637131 14.5871212121212  2.24050632911392 14.4431818181818  C 2.40084388185654 14.2992424242424  2.59071729957806 14.2272727272727  2.81012658227848 14.2272727272727  L 8.22784810126582 14.2272727272727  L 0.10126582278481 1.09090909090909  C -0.0337552742616034 0.848484848484848  -0.0337552742616034 0.606060606060602  0.10126582278481 0.363636363636363  C 0.270042194092827 0.121212121212121  0.506329113924051 0  0.810126582278481 0  L 5.72151898734177 0  C 6.04219409282701 0  6.28691983122363 0.136363636363637  6.45569620253165 0.40909090909091  L 11.8987341772152 10.0681818181818  C 12.2194092827004 10.6439393939394  12.6919831223629 11.5909090909091  13.3164556962025 12.9090909090909  C 13.4852320675106 12.5454545454545  13.7426160337553 12.030303030303  14.0886075949367 11.3636363636364  C 14.4345991561181 10.6969696969697  14.6666666666667 10.2348484848485  14.7848101265823 9.97727272727273  L 19.620253164557 0.431818181818183  C 19.7552742616034 0.143939393939391  20 0  20.3544303797468 0  L 25.1898734177215 0  C 25.4767932489452 0  25.704641350211 0.121212121212121  25.873417721519 0.363636363636363  C 26.0253164556962 0.575757575757574  26.0337552742616 0.810606060606059  25.8987341772152 1.06818181818182  L 17.9746835443038 14.2272727272727  L 23.4177215189873 14.2272727272727  C 23.6371308016878 14.2272727272727  23.8270042194093 14.2992424242424  23.9873417721519 14.4431818181818  C 24.1476793248945 14.5871212121212  24.2278481012658 14.7575757575758  24.2278481012658 14.9545454545455  L 24.2278481012658 17.3181818181818  C 24.2278481012658 17.530303030303  24.1476793248945 17.7045454545455  23.9873417721519 17.8409090909091  C 23.8270042194093 17.9772727272727  23.6371308016878 18.0454545454545  23.4177215189873 18.0454545454545  L 16.0759493670886 18.0454545454545  L 16.0759493670886 19.9772727272727  L 23.4177215189873 19.9772727272727  C 23.6371308016878 19.9772727272727  23.8270042194093 20.0492424242424  23.9873417721519 20.1931818181818  C 24.1476793248945 20.3371212121212  24.2278481012658 20.5075757575758  24.2278481012658 20.7045454545455  L 24.2278481012658 23.0454545454545  C 24.2278481012658 23.2575757575758  24.1476793248945 23.4318181818182  23.9873417721519 23.5681818181818  C 23.8270042194093 23.7045454545455  23.6371308016878 23.7727272727273  23.4177215189873 23.7727272727273  L 16.0759493670886 23.7727272727273  L 16.0759493670886 31.2727272727273  C 16.0759493670886 31.469696969697  15.9957805907173 31.6401515151515  15.8354430379747 31.7840909090909  Z " fill-rule="nonzero" fill="#000000" stroke="none" transform="matrix(1 0 0 1 593 275 )" />
  </g>
</svg>