<?xml version="1.0" encoding="utf-8"?>
<svg version="1.1" xmlns:xlink="http://www.w3.org/1999/xlink" width="49px" height="14px" xmlns="http://www.w3.org/2000/svg">
  <defs>
    <mask fill="white" id="clip63">
      <path d="M 0 9  L 0 5  C 0 2.2  2.20000000000005 0  5 0  L 33 0  L 34 0  L 44 0  C 46.8 0  49 2.2  49 5  L 49 9  C 49 11.8  46.8 14  44 14  L 28 14  L 5 14  C 2.20000000000005 14  0 11.8  0 9  Z " fill-rule="evenodd" />
    </mask>
  </defs>
  <g transform="matrix(1 0 0 1 -759 -1 )">
    <path d="M 0 9  L 0 5  C 0 2.2  2.20000000000005 0  5 0  L 33 0  L 34 0  L 44 0  C 46.8 0  49 2.2  49 5  L 49 9  C 49 11.8  46.8 14  44 14  L 28 14  L 5 14  C 2.20000000000005 14  0 11.8  0 9  Z " fill-rule="nonzero" fill="#36c2aa" stroke="none" transform="matrix(1 0 0 1 759 1 )" />
    <path d="M 0 9  L 0 5  C 0 2.2  2.20000000000005 0  5 0  L 33 0  L 34 0  L 44 0  C 46.8 0  49 2.2  49 5  L 49 9  C 49 11.8  46.8 14  44 14  L 28 14  L 5 14  C 2.20000000000005 14  0 11.8  0 9  Z " stroke-width="2" stroke="#797979" fill="none" transform="matrix(1 0 0 1 759 1 )" mask="url(#clip63)" />
  </g>
</svg>